<?xml version="1.0" encoding="UTF-8" standalone="no"?>
<!-- Created with Inkscape (http://www.inkscape.org/) -->

<svg
   xmlns:dc="http://purl.org/dc/elements/1.1/"
   xmlns:cc="http://creativecommons.org/ns#"
   xmlns:rdf="http://www.w3.org/1999/02/22-rdf-syntax-ns#"
   xmlns:svg="http://www.w3.org/2000/svg"
   xmlns="http://www.w3.org/2000/svg"
   xmlns:sodipodi="http://sodipodi.sourceforge.net/DTD/sodipodi-0.dtd"
   xmlns:inkscape="http://www.inkscape.org/namespaces/inkscape"
   width="48"
   height="48"
   viewBox="0 0 12.7 12.7"
   version="1.1"
   id="svg8"
   inkscape:version="0.92.5 (2060ec1f9f, 2020-04-08)"
   sodipodi:docname="Dark_Mode.svg">
  <defs
     id="defs2" />
  <sodipodi:namedview
     id="base"
     pagecolor="#ffffff"
     bordercolor="#666666"
     borderopacity="1.0"
     inkscape:pageopacity="0.0"
     inkscape:pageshadow="2"
     inkscape:zoom="15.839192"
     inkscape:cx="28.887216"
     inkscape:cy="24.432454"
     inkscape:document-units="mm"
     inkscape:current-layer="layer1"
     showgrid="false"
     inkscape:window-width="1848"
     inkscape:window-height="1012"
     inkscape:window-x="72"
     inkscape:window-y="1111"
     inkscape:window-maximized="1"
     units="px" />
  <metadata
     id="metadata5">
    <rdf:RDF>
      <cc:Work
         rdf:about="">
        <dc:format>image/svg+xml</dc:format>
        <dc:type
           rdf:resource="http://purl.org/dc/dcmitype/StillImage" />
        <dc:title></dc:title>
      </cc:Work>
    </rdf:RDF>
  </metadata>
  <g
     inkscape:label="Layer 1"
     inkscape:groupmode="layer"
     id="layer1"
     transform="translate(0,-284.3)">
    <path
       style="fill:none;stroke:#000000;stroke-width:0.07017189px;stroke-linecap:butt;stroke-linejoin:miter;stroke-opacity:1"
       d="m 7.5439458,285.48982 c -1.777413,-0.0201 -2.8980457,0.65369 -3.5789548,2.18107 -0.5297993,0.96378 -0.6883538,2.00216 -0.672881,3.00928 0.1001617,2.90616 1.2675655,4.38288 2.6605888,4.819 0.676695,0.24507 2.862475,-0.39284 3.696406,-2.6413 -1.154376,0.7665 -2.145156,1.25406 -3.10101,0.93921 -0.832099,-0.68627 -1.2453699,-1.06206 -1.5224496,-3.28995 0.1839515,-2.48192 1.1539916,-3.03949 2.0879576,-3.28986 1.146531,-0.24184 1.785464,0.35074 2.435256,1.27991 0.06672,-1.42305 -0.786102,-2.74611 -2.004913,-3.00736 z"
       id="path3990"
       inkscape:connector-curvature="0"
       sodipodi:nodetypes="cccccccccc" />
    <path
       style="fill:#ffcc00;stroke-width:0.06313454"
       d="m 23.102669,42.306214 c -0.729281,-0.11576 -2.256181,-0.767081 -3.188276,-1.360006 -3.688415,-2.346276 -6.134977,-6.879599 -6.966638,-12.908737 -0.258169,-1.871592 -0.29244,-2.406243 -0.291383,-4.545686 8.07e-4,-1.63214 0.02658,-2.32401 0.112875,-3.030458 0.228017,-1.866564 0.717861,-3.875763 1.31907,-5.410433 0.348311,-0.889114 1.701278,-3.619155 2.165603,-4.369792 1.004533,-1.6239467 2.320129,-3.0020877 3.75658,-3.93517 1.997001,-1.2972014 4.395491,-1.9653018 7.355173,-2.0487864 l 1.262691,-0.035617 0.581021,0.1952863 c 1.324698,0.445243 2.39207,1.1157775 3.429542,2.1544765 0.896412,0.8974715 1.444079,1.6626054 2.012677,2.8118667 0.799301,1.6155659 1.273218,3.4926529 1.266799,5.0175399 l -0.002,0.475165 -0.130534,-0.174992 c -2.072713,-2.778645 -3.869004,-4.08678 -6.049691,-4.405639 -0.643048,-0.09403 -2.047898,-0.04407 -2.686175,0.09552 -0.700422,0.153177 -1.586769,0.460913 -2.298992,0.7982 -2.865579,1.357048 -4.577758,3.939966 -5.436348,8.201035 -0.164288,0.815342 -0.389224,2.442925 -0.458081,3.314563 -0.03304,0.418204 0.275987,2.598793 0.58604,4.135312 0.518625,2.570138 1.133376,4.219068 2.106624,5.650541 0.426357,0.627093 1.628488,1.875403 2.539725,2.637284 0.522028,0.436466 0.620061,0.491947 1.073287,0.607422 2.8386,0.723232 5.992668,-0.203268 10.424186,-3.062078 0.28785,-0.185696 0.523364,-0.3144 0.523364,-0.28601 0,0.14777 -1.058131,2.154156 -1.452953,2.755032 -1.931073,2.938879 -4.741183,5.154226 -7.849986,6.188529 -1.404531,0.467289 -2.833241,0.673884 -3.704198,0.535637 z"
       id="path4011"
       inkscape:connector-curvature="0"
       transform="matrix(0.26458333,0,0,0.26458333,0,284.3)" />
  </g>
</svg>
