<?xml version="1.0" encoding="UTF-8" standalone="no"?>
<!-- Created with Inkscape (http://www.inkscape.org/) -->

<svg
   xmlns:dc="http://purl.org/dc/elements/1.1/"
   xmlns:cc="http://creativecommons.org/ns#"
   xmlns:rdf="http://www.w3.org/1999/02/22-rdf-syntax-ns#"
   xmlns:svg="http://www.w3.org/2000/svg"
   xmlns="http://www.w3.org/2000/svg"
   xmlns:sodipodi="http://sodipodi.sourceforge.net/DTD/sodipodi-0.dtd"
   xmlns:inkscape="http://www.inkscape.org/namespaces/inkscape"
   width="48"
   height="48"
   viewBox="0 0 12.7 12.7"
   version="1.1"
   id="svg8"
   inkscape:version="0.92.5 (2060ec1f9f, 2020-04-08)"
   sodipodi:docname="Dark_Mode.svg">
  <defs
     id="defs2" />
  <sodipodi:namedview
     id="base"
     pagecolor="#ffffff"
     bordercolor="#666666"
     borderopacity="1.0"
     inkscape:pageopacity="0.0"
     inkscape:pageshadow="2"
     inkscape:zoom="11.2"
     inkscape:cx="-0.11269797"
     inkscape:cy="18.36015"
     inkscape:document-units="mm"
     inkscape:current-layer="layer1"
     showgrid="false"
     inkscape:window-width="1848"
     inkscape:window-height="1012"
     inkscape:window-x="72"
     inkscape:window-y="1111"
     inkscape:window-maximized="1"
     units="px" />
  <metadata
     id="metadata5">
    <rdf:RDF>
      <cc:Work
         rdf:about="">
        <dc:format>image/svg+xml</dc:format>
        <dc:type
           rdf:resource="http://purl.org/dc/dcmitype/StillImage" />
        <dc:title />
      </cc:Work>
    </rdf:RDF>
  </metadata>
  <g
     inkscape:label="Layer 1"
     inkscape:groupmode="layer"
     id="layer1"
     transform="translate(0,-284.3)">
    <path
       style="fill:#ffcc00;stroke:#000000;stroke-width:0.3;stroke-linecap:butt;stroke-linejoin:miter;stroke-opacity:1;stroke-miterlimit:4;stroke-dasharray:none"
       d="m 7.4354329,286.70853 c -2.412811,-0.0166 -3.906148,2.0137 -3.8816745,4.24362 -0.029403,2.42872 1.9055332,3.8862 3.7149955,3.86053 1.4089948,-0.004 2.8213811,-1.26902 2.7701051,-2.19999 -1.1975841,0.67695 -1.8433693,0.80163 -2.6538439,0.77655 -0.7317684,-8.2e-4 -1.9141894,-0.82206 -1.9275589,-2.6455 0.010509,-1.97553 1.2440178,-2.67275 2.0475087,-2.7133 0.7667843,-0.02 1.6255866,0.36635 2.5035031,1.08047 0.01019,-1.1696 -0.8982201,-2.42083 -2.5730351,-2.40238 z"
       id="path3990"
       inkscape:connector-curvature="0"
       sodipodi:nodetypes="ccccccccc" />
    <path
       style="fill:#00c8ff;fill-opacity:1;stroke:#000000;stroke-width:0.3;stroke-linecap:butt;stroke-linejoin:miter;stroke-miterlimit:4.9000001;stroke-dasharray:none;stroke-opacity:1;paint-order:stroke fill markers"
       d="m 2.2247834,286.41072 0.2239017,0.65136 -0.6364187,0.36476 0.7856866,0.0966 -0.032414,0.57103 0.4354376,-0.46247 0.7164855,0.27141 -0.268682,-0.56996 0.6139373,-0.35774 -0.8229124,-0.0629 0.040848,-0.609 -0.4438707,0.47331 z"
       id="path9"
       inkscape:connector-curvature="0"
       sodipodi:nodetypes="ccccccccccccc" />
  </g>
</svg>
