<?xml version="1.0" encoding="UTF-8" standalone="no"?>
<!-- Created with Inkscape (http://www.inkscape.org/) -->

<svg
   xmlns:dc="http://purl.org/dc/elements/1.1/"
   xmlns:cc="http://creativecommons.org/ns#"
   xmlns:rdf="http://www.w3.org/1999/02/22-rdf-syntax-ns#"
   xmlns:svg="http://www.w3.org/2000/svg"
   xmlns="http://www.w3.org/2000/svg"
   xmlns:sodipodi="http://sodipodi.sourceforge.net/DTD/sodipodi-0.dtd"
   xmlns:inkscape="http://www.inkscape.org/namespaces/inkscape"
   width="48"
   height="48"
   viewBox="0 0 12.7 12.7"
   version="1.1"
   id="svg4019"
   inkscape:version="0.92.5 (2060ec1f9f, 2020-04-08)"
   sodipodi:docname="Light_Mode.svg">
  <defs
     id="defs4013" />
  <sodipodi:namedview
     id="base"
     pagecolor="#ffffff"
     bordercolor="#666666"
     borderopacity="1.0"
     inkscape:pageopacity="0.0"
     inkscape:pageshadow="2"
     inkscape:zoom="22.4"
     inkscape:cx="20.726446"
     inkscape:cy="23.824749"
     inkscape:document-units="mm"
     inkscape:current-layer="layer1"
     showgrid="false"
     units="px"
     inkscape:window-width="1848"
     inkscape:window-height="1012"
     inkscape:window-x="72"
     inkscape:window-y="1111"
     inkscape:window-maximized="1" />
  <metadata
     id="metadata4016">
    <rdf:RDF>
      <cc:Work
         rdf:about="">
        <dc:format>image/svg+xml</dc:format>
        <dc:type
           rdf:resource="http://purl.org/dc/dcmitype/StillImage" />
        <dc:title></dc:title>
      </cc:Work>
    </rdf:RDF>
  </metadata>
  <g
     inkscape:label="Layer 1"
     inkscape:groupmode="layer"
     id="layer1"
     transform="translate(0,-284.3)">
    <ellipse
       style="fill:#000000;stroke-width:0.13802463"
       id="path4023"
       cx="6.3977642"
       cy="290.48529"
       rx="3.0847991"
       ry="3.0673709" />
    <ellipse
       style="fill:#ffcc00;stroke-width:0.25245824"
       id="path4031"
       cx="6.3977642"
       cy="290.4726"
       rx="2.8849289"
       ry="2.8689899" />
    <path
       style="fill:none;stroke:#000000;stroke-width:0.26458332px;stroke-linecap:butt;stroke-linejoin:miter;stroke-opacity:1"
       d="m 6.015591,286.823 v -1.39481 h 0.7015823 v 1.41152 z"
       id="path4035"
       inkscape:connector-curvature="0" />
    <path
       style="fill:none;stroke:#000000;stroke-width:0.26458332px;stroke-linecap:butt;stroke-linejoin:miter;stroke-opacity:1"
       d="m 6.1065339,295.54485 v -1.39481 h 0.7015823 v 1.41152 z"
       id="path4035-3"
       inkscape:connector-curvature="0" />
    <path
       style="fill:#ffcc00;stroke:#000000;stroke-width:0.26458332px;stroke-linecap:butt;stroke-linejoin:miter;stroke-opacity:1"
       d="m 10.359774,287.13244 -0.9862796,0.98628 -0.4961023,-0.4961 0.9980974,-0.9981 z"
       id="path4035-6"
       inkscape:connector-curvature="0" />
    <path
       style="fill:none;stroke:#000000;stroke-width:0.26458332px;stroke-linecap:butt;stroke-linejoin:miter;stroke-opacity:1"
       d="m 10.213201,290.00942 h 1.39481 v 0.70158 h -1.41152 z"
       id="path4035-7"
       inkscape:connector-curvature="0" />
    <path
       style="fill:none;stroke:#000000;stroke-width:0.26458332px;stroke-linecap:butt;stroke-linejoin:miter;stroke-opacity:1"
       d="m 1.174053,290.08188 h 1.39481 v 0.70158 h -1.41152 z"
       id="path4035-7-5"
       inkscape:connector-curvature="0" />
    <path
       style="fill:none;stroke:#000000;stroke-width:0.26458332px;stroke-linecap:butt;stroke-linejoin:miter;stroke-opacity:1"
       d="m 3.5780963,293.2976 -0.986279,0.98628 -0.496102,-0.4961 0.998097,-0.9981 z"
       id="path4035-6-3"
       inkscape:connector-curvature="0" />
    <path
       style="fill:none;stroke:#000000;stroke-width:0.26458332px;stroke-linecap:butt;stroke-linejoin:miter;stroke-opacity:1"
       d="m 9.6186997,292.95279 0.9862813,0.98628 -0.496095,0.49611 -0.9981037,-0.9981 z"
       id="path4035-6-5"
       inkscape:connector-curvature="0" />
    <path
       style="fill:none;stroke:#000000;stroke-width:0.26458332px;stroke-linecap:butt;stroke-linejoin:miter;stroke-opacity:1"
       d="m 2.737813,286.56038 0.986281,0.98628 -0.496095,0.49611 -0.9981035,-0.9981 z"
       id="path4035-6-5-6"
       inkscape:connector-curvature="0" />
    <path
       style="fill:#ffcc00;stroke-width:0.04464286"
       d="m 36.679789,36.052483 -1.505985,-1.506696 0.583887,-0.553959 0.583887,-0.553958 1.502325,1.502325 1.502326,1.502326 -0.556989,0.558329 c -0.306344,0.307082 -0.567446,0.55833 -0.580227,0.55833 -0.01278,0 -0.700931,-0.678013 -1.529224,-1.506697 z"
       id="path4920"
       inkscape:connector-curvature="0"
       transform="matrix(0.26458333,0,0,0.26458333,0,284.3)" />
    <path
       style="fill:#ffcc00;stroke-width:0.04464286"
       d="m 39.072765,23.445488 c 0.01578,-0.150923 0.02868,-0.51253 0.02868,-0.803571 v -0.529166 h 2.120536 2.120536 v 0.803572 0.803571 H 41.1933 39.044083 Z"
       id="path4922"
       inkscape:connector-curvature="0"
       transform="matrix(0.26458333,0,0,0.26458333,0,284.3)" />
    <path
       style="fill:#ffcc00;stroke-width:0.04464286"
       d="m 23.84475,9.0436711 -0.591518,-0.013868 v -2.11924 -2.1192399 h 0.803571 0.803572 V 6.9341798 9.077037 L 24.648321,9.067287 C 24.531692,9.061927 24.170085,9.051297 23.84475,9.04367 Z"
       id="path4924"
       inkscape:connector-curvature="0"
       transform="matrix(0.26458333,0,0,0.26458333,0,284.3)" />
    <path
       style="fill:#ffcc00;stroke-width:0.04464286"
       d="M 10.694808,11.89808 9.186357,10.38914 9.6738924,9.908711 C 9.9420369,9.6444753 10.206444,9.3967521 10.261463,9.358215 c 0.09802,-0.068658 0.130019,-0.040084 1.590826,1.420723 l 1.490791,1.490791 -0.569911,0.568645 -0.569911,0.568646 z"
       id="path4926"
       inkscape:connector-curvature="0"
       transform="matrix(0.26458333,0,0,0.26458333,0,284.3)" />
    <path
       style="fill:#ffcc00;stroke-width:0.04464286"
       d="m 4.9051987,23.753376 c 9.95e-5,-0.128906 0.013244,-0.490513 0.029211,-0.803571 l 0.02903,-0.569197 H 7.0770856 9.190732 v 0.803572 0.803571 H 7.0478748 4.9050177 Z"
       id="path4928"
       inkscape:connector-curvature="0"
       transform="matrix(0.26458333,0,0,0.26458333,0,284.3)" />
    <path
       style="fill:#ffcc00;stroke-width:0.04464286"
       d="m 9.2352931,36.420705 -0.5572007,-0.558542 1.5095136,-1.506402 1.509513,-1.506403 0.531624,0.558036 c 0.292393,0.30692 0.532028,0.568193 0.532521,0.580607 4.93e-4,0.01241 -0.667278,0.690523 -1.483937,1.506909 l -1.4848332,1.484337 z"
       id="path4930"
       inkscape:connector-curvature="0"
       transform="matrix(0.26458333,0,0,0.26458333,0,284.3)" />
    <path
       style="fill:#ffcc00;stroke-width:0.04464286"
       d="m 23.822428,41.990651 -0.212053,-0.01672 v -2.11809 -2.11809 h 0.803571 0.803572 v 2.142857 2.142858 l -0.591518,-0.008 c -0.325335,-0.0044 -0.686942,-0.01557 -0.803572,-0.02477 z"
       id="path4932"
       inkscape:connector-curvature="0"
       transform="matrix(0.26458333,0,0,0.26458333,0,284.3)" />
  </g>
</svg>
